<svg width="75" height="75" viewBox="0 0 75 75" fill="none" xmlns="http://www.w3.org/2000/svg">
<rect x="1" y="1" width="73" height="73" rx="15" fill="white" stroke="#0050C9" stroke-width="2"/>
<mask id="path-2-outside-1_4004_2" maskUnits="userSpaceOnUse" x="13.8571" y="9.49988" width="48" height="54" fill="black">
<rect fill="white" x="13.8571" y="9.49988" width="48" height="54"/>
<path d="M39.0599 61.6399H29.3399C28.3799 61.6399 27.6799 61.4199 27.2399 60.9799C26.7999 60.5399 26.5799 59.8399 26.5799 58.8799V30.0199H18.3599C17.3999 30.0199 16.6999 29.7999 16.2599 29.3599C15.8199 28.9199 15.5999 28.2199 15.5999 27.2599V19.9999C15.5999 19.4799 15.6599 19.0399 15.7799 18.6799C15.9399 18.3199 16.1599 18.0199 16.4399 17.7799L24.1799 11.2399C24.3799 11.0799 24.6399 10.9599 24.9599 10.8799C25.3199 10.7599 25.6999 10.6999 26.0999 10.6999H57.7799C58.7399 10.6999 59.4399 10.9199 59.8799 11.3599C60.3199 11.7999 60.5399 12.4999 60.5399 13.4599V20.7199C60.5399 21.2399 60.4599 21.6799 60.2999 22.0399C60.1799 22.3999 59.9799 22.6999 59.6999 22.9399L51.8999 29.4199C51.7399 29.5799 51.4799 29.7199 51.1199 29.8399C50.7999 29.9599 50.4399 30.0199 50.0399 30.0199H49.5599V52.3399C49.5599 52.8599 49.4799 53.2999 49.3199 53.6599C49.1999 54.0199 48.9999 54.3199 48.7199 54.5599L40.9199 61.0399C40.7599 61.1999 40.4999 61.3399 40.1399 61.4599C39.8199 61.5799 39.4599 61.6399 39.0599 61.6399ZM46.7999 54.4999C47.5599 54.4999 48.0999 54.3399 48.4199 54.0199C48.7799 53.6599 48.9599 53.0999 48.9599 52.3399V22.8799H57.7799C58.5399 22.8799 59.0799 22.7199 59.3999 22.3999C59.7599 22.0399 59.9399 21.4799 59.9399 20.7199V13.4599C59.9399 12.6999 59.7599 12.1599 59.3999 11.8399C59.0799 11.4799 58.5399 11.2999 57.7799 11.2999H26.0999C25.3399 11.2999 24.7799 11.4799 24.4199 11.8399C24.0999 12.1599 23.9399 12.6999 23.9399 13.4599V20.7199C23.9399 21.4799 24.0999 22.0399 24.4199 22.3999C24.7799 22.7199 25.3399 22.8799 26.0999 22.8799H34.9199V52.3399C34.9199 53.0999 35.0799 53.6599 35.3999 54.0199C35.7599 54.3399 36.3199 54.4999 37.0799 54.4999H46.7999ZM41.6399 49.0999V17.2999H29.3399V16.6999H54.5399V17.2999H42.2399V49.0999H41.6399Z"/>
</mask>
<path d="M39.0599 61.6399H29.3399C28.3799 61.6399 27.6799 61.4199 27.2399 60.9799C26.7999 60.5399 26.5799 59.8399 26.5799 58.8799V30.0199H18.3599C17.3999 30.0199 16.6999 29.7999 16.2599 29.3599C15.8199 28.9199 15.5999 28.2199 15.5999 27.2599V19.9999C15.5999 19.4799 15.6599 19.0399 15.7799 18.6799C15.9399 18.3199 16.1599 18.0199 16.4399 17.7799L24.1799 11.2399C24.3799 11.0799 24.6399 10.9599 24.9599 10.8799C25.3199 10.7599 25.6999 10.6999 26.0999 10.6999H57.7799C58.7399 10.6999 59.4399 10.9199 59.8799 11.3599C60.3199 11.7999 60.5399 12.4999 60.5399 13.4599V20.7199C60.5399 21.2399 60.4599 21.6799 60.2999 22.0399C60.1799 22.3999 59.9799 22.6999 59.6999 22.9399L51.8999 29.4199C51.7399 29.5799 51.4799 29.7199 51.1199 29.8399C50.7999 29.9599 50.4399 30.0199 50.0399 30.0199H49.5599V52.3399C49.5599 52.8599 49.4799 53.2999 49.3199 53.6599C49.1999 54.0199 48.9999 54.3199 48.7199 54.5599L40.9199 61.0399C40.7599 61.1999 40.4999 61.3399 40.1399 61.4599C39.8199 61.5799 39.4599 61.6399 39.0599 61.6399ZM46.7999 54.4999C47.5599 54.4999 48.0999 54.3399 48.4199 54.0199C48.7799 53.6599 48.9599 53.0999 48.9599 52.3399V22.8799H57.7799C58.5399 22.8799 59.0799 22.7199 59.3999 22.3999C59.7599 22.0399 59.9399 21.4799 59.9399 20.7199V13.4599C59.9399 12.6999 59.7599 12.1599 59.3999 11.8399C59.0799 11.4799 58.5399 11.2999 57.7799 11.2999H26.0999C25.3399 11.2999 24.7799 11.4799 24.4199 11.8399C24.0999 12.1599 23.9399 12.6999 23.9399 13.4599V20.7199C23.9399 21.4799 24.0999 22.0399 24.4199 22.3999C24.7799 22.7199 25.3399 22.8799 26.0999 22.8799H34.9199V52.3399C34.9199 53.0999 35.0799 53.6599 35.3999 54.0199C35.7599 54.3399 36.3199 54.4999 37.0799 54.4999H46.7999ZM41.6399 49.0999V17.2999H29.3399V16.6999H54.5399V17.2999H42.2399V49.0999H41.6399Z" fill="#0050C9"/>
<path d="M27.2399 60.9799L27.947 60.2728L27.947 60.2728L27.2399 60.9799ZM26.5799 30.0199H27.5799V29.0199H26.5799V30.0199ZM16.2599 29.3599L16.967 28.6528L16.967 28.6528L16.2599 29.3599ZM15.7799 18.6799L14.8661 18.2737L14.8465 18.3179L14.8312 18.3637L15.7799 18.6799ZM16.4399 17.7799L15.7945 17.016L15.7891 17.0206L16.4399 17.7799ZM24.1799 11.2399L23.5552 10.459L23.5448 10.4674L23.5345 10.476L24.1799 11.2399ZM24.9599 10.8799L25.2025 11.85L25.2397 11.8407L25.2761 11.8286L24.9599 10.8799ZM59.8799 11.3599L60.587 10.6528L60.587 10.6528L59.8799 11.3599ZM60.2999 22.0399L59.3861 21.6337L59.3665 21.6779L59.3512 21.7237L60.2999 22.0399ZM59.6999 22.9399L60.3389 23.7091L60.3449 23.7041L60.3507 23.6991L59.6999 22.9399ZM51.8999 29.4199L51.2609 28.6507L51.2254 28.6802L51.1928 28.7128L51.8999 29.4199ZM51.1199 29.8399L50.8037 28.8912L50.7861 28.897L50.7688 28.9035L51.1199 29.8399ZM49.5599 30.0199V29.0199H48.5599V30.0199H49.5599ZM49.3199 53.6599L48.4061 53.2537L48.3865 53.2979L48.3712 53.3436L49.3199 53.6599ZM48.7199 54.5599L49.3589 55.3291L49.3649 55.3241L49.3707 55.3191L48.7199 54.5599ZM40.9199 61.0399L40.2809 60.2707L40.2454 60.3002L40.2128 60.3328L40.9199 61.0399ZM40.1399 61.4599L39.8237 60.5112L39.8061 60.517L39.7888 60.5235L40.1399 61.4599ZM48.4199 54.0199L47.7128 53.3128L47.7128 53.3128L48.4199 54.0199ZM48.9599 22.8799V21.8799H47.9599V22.8799H48.9599ZM59.3999 22.3999L60.107 23.107L59.3999 22.3999ZM59.3999 11.8399L58.6525 12.5042L58.6916 12.5482L58.7356 12.5873L59.3999 11.8399ZM24.4199 11.8399L23.7128 11.1328L23.7128 11.1328L24.4199 11.8399ZM24.4199 22.3999L23.6725 23.0642L23.7116 23.1082L23.7556 23.1473L24.4199 22.3999ZM34.9199 22.8799H35.9199V21.8799H34.9199V22.8799ZM35.3999 54.0199L34.6525 54.6842L34.6916 54.7282L34.7356 54.7673L35.3999 54.0199ZM41.6399 49.0999H40.6399V50.0999H41.6399V49.0999ZM41.6399 17.2999H42.6399V16.2999H41.6399V17.2999ZM29.3399 17.2999H28.3399V18.2999H29.3399V17.2999ZM29.3399 16.6999V15.6999H28.3399V16.6999H29.3399ZM54.5399 16.6999H55.5399V15.6999H54.5399V16.6999ZM54.5399 17.2999V18.2999H55.5399V17.2999H54.5399ZM42.2399 17.2999V16.2999H41.2399V17.2999H42.2399ZM42.2399 49.0999V50.0999H43.2399V49.0999H42.2399ZM39.0599 61.6399V60.6399H29.3399V61.6399V62.6399H39.0599V61.6399ZM29.3399 61.6399V60.6399C28.5045 60.6399 28.1192 60.4449 27.947 60.2728L27.2399 60.9799L26.5328 61.687C27.2407 62.3948 28.2554 62.6399 29.3399 62.6399V61.6399ZM27.2399 60.9799L27.947 60.2728C27.7749 60.1006 27.5799 59.7153 27.5799 58.8799H26.5799H25.5799C25.5799 59.9644 25.825 60.9791 26.5328 61.687L27.2399 60.9799ZM26.5799 58.8799H27.5799V30.0199H26.5799H25.5799V58.8799H26.5799ZM26.5799 30.0199V29.0199H18.3599V30.0199V31.0199H26.5799V30.0199ZM18.3599 30.0199V29.0199C17.5245 29.0199 17.1392 28.8249 16.967 28.6528L16.2599 29.3599L15.5528 30.067C16.2607 30.7748 17.2754 31.0199 18.3599 31.0199V30.0199ZM16.2599 29.3599L16.967 28.6528C16.7949 28.4806 16.5999 28.0953 16.5999 27.2599H15.5999H14.5999C14.5999 28.3444 14.845 29.3591 15.5528 30.067L16.2599 29.3599ZM15.5999 27.2599H16.5999V19.9999H15.5999H14.5999V27.2599H15.5999ZM15.5999 19.9999H16.5999C16.5999 19.5505 16.6526 19.2242 16.7286 18.9961L15.7799 18.6799L14.8312 18.3637C14.6673 18.8556 14.5999 19.4093 14.5999 19.9999H15.5999ZM15.7799 18.6799L16.6937 19.086C16.7976 18.8523 16.9311 18.6759 17.0907 18.5391L16.4399 17.7799L15.7891 17.0206C15.3887 17.3638 15.0823 17.7874 14.8661 18.2737L15.7799 18.6799ZM16.4399 17.7799L17.0853 18.5437L24.8253 12.0037L24.1799 11.2399L23.5345 10.476L15.7945 17.016L16.4399 17.7799ZM24.1799 11.2399L24.8046 12.0207C24.8649 11.9725 24.9833 11.9048 25.2025 11.85L24.9599 10.8799L24.7174 9.90973C24.2965 10.015 23.8949 10.1872 23.5552 10.459L24.1799 11.2399ZM24.9599 10.8799L25.2761 11.8286C25.5288 11.7443 25.8016 11.6999 26.0999 11.6999V10.6999V9.69988C25.5983 9.69988 25.1111 9.7754 24.6437 9.93119L24.9599 10.8799ZM26.0999 10.6999V11.6999H57.7799V10.6999V9.69988H26.0999V10.6999ZM57.7799 10.6999V11.6999C58.6154 11.6999 59.0007 11.8948 59.1728 12.067L59.8799 11.3599L60.587 10.6528C59.8792 9.94493 58.8645 9.69988 57.7799 9.69988V10.6999ZM59.8799 11.3599L59.1728 12.067C59.345 12.2391 59.5399 12.6244 59.5399 13.4599H60.5399H61.5399C61.5399 12.3753 61.2949 11.3606 60.587 10.6528L59.8799 11.3599ZM60.5399 13.4599H59.5399V20.7199H60.5399H61.5399V13.4599H60.5399ZM60.5399 20.7199H59.5399C59.5399 21.1426 59.4742 21.4355 59.3861 21.6337L60.2999 22.0399L61.2137 22.446C61.4456 21.9242 61.5399 21.3372 61.5399 20.7199H60.5399ZM60.2999 22.0399L59.3512 21.7237C59.2868 21.9169 59.1874 22.0621 59.0491 22.1806L59.6999 22.9399L60.3507 23.6991C60.7725 23.3376 61.073 22.8828 61.2486 22.3561L60.2999 22.0399ZM59.6999 22.9399L59.0609 22.1707L51.2609 28.6507L51.8999 29.4199L52.5389 30.1891L60.3389 23.7091L59.6999 22.9399ZM51.8999 29.4199L51.1928 28.7128C51.1989 28.7067 51.1797 28.7273 51.1108 28.7644C51.0433 28.8008 50.9437 28.8445 50.8037 28.8912L51.1199 29.8399L51.4362 30.7886C51.8562 30.6485 52.2868 30.4472 52.607 30.127L51.8999 29.4199ZM51.1199 29.8399L50.7688 28.9035C50.5784 28.9749 50.3401 29.0199 50.0399 29.0199V30.0199V31.0199C50.5398 31.0199 51.0214 30.9448 51.471 30.7762L51.1199 29.8399ZM50.0399 30.0199V29.0199H49.5599V30.0199V31.0199H50.0399V30.0199ZM49.5599 30.0199H48.5599V52.3399H49.5599H50.5599V30.0199H49.5599ZM49.5599 52.3399H48.5599C48.5599 52.7626 48.4942 53.0555 48.4061 53.2537L49.3199 53.6599L50.2337 54.066C50.4656 53.5442 50.5599 52.9572 50.5599 52.3399H49.5599ZM49.3199 53.6599L48.3712 53.3436C48.3068 53.5369 48.2074 53.6821 48.0691 53.8006L48.7199 54.5599L49.3707 55.3191C49.7925 54.9576 50.093 54.5028 50.2686 53.9761L49.3199 53.6599ZM48.7199 54.5599L48.0809 53.7907L40.2809 60.2707L40.9199 61.0399L41.5589 61.8091L49.3589 55.3291L48.7199 54.5599ZM40.9199 61.0399L40.2128 60.3328C40.2189 60.3267 40.1997 60.3473 40.1308 60.3844C40.0633 60.4208 39.9637 60.4645 39.8237 60.5112L40.1399 61.4599L40.4562 62.4086C40.8762 62.2686 41.3068 62.0672 41.627 61.747L40.9199 61.0399ZM40.1399 61.4599L39.7888 60.5235C39.5984 60.5949 39.3601 60.6399 39.0599 60.6399V61.6399V62.6399C39.5598 62.6399 40.0414 62.5648 40.491 62.3962L40.1399 61.4599ZM46.7999 54.4999V55.4999C47.6553 55.4999 48.5264 55.3276 49.127 54.727L48.4199 54.0199L47.7128 53.3128C47.6735 53.3521 47.4645 53.4999 46.7999 53.4999V54.4999ZM48.4199 54.0199L49.127 54.727C49.7496 54.1044 49.9599 53.2357 49.9599 52.3399H48.9599H47.9599C47.9599 52.9641 47.8102 53.2154 47.7128 53.3128L48.4199 54.0199ZM48.9599 52.3399H49.9599V22.8799H48.9599H47.9599V52.3399H48.9599ZM48.9599 22.8799V23.8799H57.7799V22.8799V21.8799H48.9599V22.8799ZM57.7799 22.8799V23.8799C58.6353 23.8799 59.5064 23.7076 60.107 23.107L59.3999 22.3999L58.6928 21.6928C58.6535 21.7321 58.4445 21.8799 57.7799 21.8799V22.8799ZM59.3999 22.3999L60.107 23.107C60.7296 22.4844 60.9399 21.6157 60.9399 20.7199H59.9399H58.9399C58.9399 21.3441 58.7902 21.5954 58.6928 21.6928L59.3999 22.3999ZM59.9399 20.7199H60.9399V13.4599H59.9399H58.9399V20.7199H59.9399ZM59.9399 13.4599H60.9399C60.9399 12.577 60.735 11.6886 60.0643 11.0925L59.3999 11.8399L58.7356 12.5873C58.7849 12.6311 58.9399 12.8228 58.9399 13.4599H59.9399ZM59.3999 11.8399L60.1473 11.1755C59.5512 10.5048 58.6628 10.2999 57.7799 10.2999V11.2999V12.2999C58.417 12.2999 58.6087 12.4549 58.6525 12.5042L59.3999 11.8399ZM57.7799 11.2999V10.2999H26.0999V11.2999V12.2999H57.7799V11.2999ZM26.0999 11.2999V10.2999C25.2041 10.2999 24.3354 10.5102 23.7128 11.1328L24.4199 11.8399L25.127 12.547C25.2244 12.4496 25.4757 12.2999 26.0999 12.2999V11.2999ZM24.4199 11.8399L23.7128 11.1328C23.1122 11.7334 22.9399 12.6045 22.9399 13.4599H23.9399H24.9399C24.9399 12.7953 25.0877 12.5863 25.127 12.547L24.4199 11.8399ZM23.9399 13.4599H22.9399V20.7199H23.9399H24.9399V13.4599H23.9399ZM23.9399 20.7199H22.9399C22.9399 21.5901 23.1183 22.4408 23.6725 23.0642L24.4199 22.3999L25.1673 21.7355C25.0815 21.639 24.9399 21.3696 24.9399 20.7199H23.9399ZM24.4199 22.3999L23.7556 23.1473C24.379 23.7015 25.2297 23.8799 26.0999 23.8799V22.8799V21.8799C25.4502 21.8799 25.1808 21.7383 25.0843 21.6525L24.4199 22.3999ZM26.0999 22.8799V23.8799H34.9199V22.8799V21.8799H26.0999V22.8799ZM34.9199 22.8799H33.9199V52.3399H34.9199H35.9199V22.8799H34.9199ZM34.9199 52.3399H33.9199C33.9199 53.2101 34.0983 54.0608 34.6525 54.6842L35.3999 54.0199L36.1473 53.3555C36.0615 53.259 35.9199 52.9896 35.9199 52.3399H34.9199ZM35.3999 54.0199L34.7356 54.7673C35.359 55.3215 36.2097 55.4999 37.0799 55.4999V54.4999V53.4999C36.4302 53.4999 36.1608 53.3583 36.0643 53.2725L35.3999 54.0199ZM37.0799 54.4999V55.4999H46.7999V54.4999V53.4999H37.0799V54.4999ZM41.6399 49.0999H42.6399V17.2999H41.6399H40.6399V49.0999H41.6399ZM41.6399 17.2999V16.2999H29.3399V17.2999V18.2999H41.6399V17.2999ZM29.3399 17.2999H30.3399V16.6999H29.3399H28.3399V17.2999H29.3399ZM29.3399 16.6999V17.6999H54.5399V16.6999V15.6999H29.3399V16.6999ZM54.5399 16.6999H53.5399V17.2999H54.5399H55.5399V16.6999H54.5399ZM54.5399 17.2999V16.2999H42.2399V17.2999V18.2999H54.5399V17.2999ZM42.2399 17.2999H41.2399V49.0999H42.2399H43.2399V17.2999H42.2399ZM42.2399 49.0999V48.0999H41.6399V49.0999V50.0999H42.2399V49.0999Z" fill="#0050C9" mask="url(#path-2-outside-1_4004_2)"/>
</svg>
